<svg width="26" height="26" viewBox="0 0 26 26" fill="none" xmlns="http://www.w3.org/2000/svg">
<path d="M18.0002 4.33989C19.5085 5.21075 20.7632 6.46042 21.64 7.96519C22.5169 9.46997 22.9856 11.1777 22.9997 12.9192C23.0137 14.6608 22.5727 16.3758 21.7203 17.8946C20.8678 19.4133 19.6334 20.6831 18.1394 21.5782C16.6454 22.4733 14.9435 22.9627 13.2022 22.998C11.4609 23.0332 9.74063 22.6131 8.21162 21.7791C6.6826 20.9452 5.3979 19.7264 4.48468 18.2434C3.57147 16.7604 3.06141 15.0646 3.005 13.3239L3 12.9999L3.005 12.6759C3.061 10.9489 3.56355 9.26585 4.46366 7.79088C5.36376 6.31592 6.6307 5.09934 8.14095 4.25977C9.65121 3.42021 11.3532 2.98629 13.0811 3.00033C14.809 3.01437 16.5038 3.47589 18.0002 4.33989ZM13.0001 6.99989C12.7552 6.99992 12.5188 7.08985 12.3357 7.25261C12.1527 7.41537 12.0358 7.63964 12.0071 7.88289L12.0001 7.99989V12.9999L12.0091 13.1309C12.0319 13.3044 12.0998 13.4689 12.2061 13.6079L12.2931 13.7079L15.2932 16.7079L15.3872 16.7899C15.5625 16.926 15.7782 16.9998 16.0002 16.9998C16.2221 16.9998 16.4378 16.926 16.6132 16.7899L16.7072 16.7069L16.7902 16.6129C16.9262 16.4375 17.0001 16.2219 17.0001 15.9999C17.0001 15.7779 16.9262 15.5623 16.7902 15.3869L16.7072 15.2929L14.0001 12.5849V7.99989L13.9931 7.88289C13.9645 7.63964 13.8475 7.41537 13.6645 7.25261C13.4815 7.08985 13.2451 6.99992 13.0001 6.99989Z" fill="white"/>
</svg>
