<svg width="13" height="14" viewBox="0 0 13 14" fill="none" xmlns="http://www.w3.org/2000/svg">
<path d="M10.5 14C9.95 14 9.47933 13.8043 9.088 13.413C8.69667 13.0217 8.50067 12.5507 8.5 12V2C8.5 1.45 8.696 0.979335 9.088 0.588001C9.48 0.196668 9.95067 0.000668362 10.5 1.69492e-06C11.0493 -0.000664972 11.5203 0.195335 11.913 0.588001C12.3057 0.980668 12.5013 1.45133 12.5 2V12C12.5 12.55 12.3043 13.021 11.913 13.413C11.5217 13.805 11.0507 14.0007 10.5 14ZM2.5 14C1.95 14 1.47933 13.8043 1.088 13.413C0.696666 13.0217 0.500667 12.5507 0.5 12V2C0.5 1.45 0.696 0.979335 1.088 0.588001C1.48 0.196668 1.95067 0.000668362 2.5 1.69492e-06C3.04933 -0.000664972 3.52033 0.195335 3.913 0.588001C4.30567 0.980668 4.50133 1.45133 4.5 2V12C4.5 12.55 4.30433 13.021 3.913 13.413C3.52167 13.805 3.05067 14.0007 2.5 14Z" fill="#629BF8"/>
</svg>
