<svg width="32" height="32" viewBox="0 0 32 32" fill="none" xmlns="http://www.w3.org/2000/svg">
<path d="M24.7482 18.6928C27.2815 18.6928 29.3333 20.7101 29.3333 23.199C29.3333 25.6864 27.2815 27.7037 24.7482 27.7037C22.2163 27.7037 20.163 25.6864 20.163 23.199C20.163 20.7101 22.2163 18.6928 24.7482 18.6928ZM13.4444 21.2773C14.554 21.2773 15.4547 22.1622 15.4547 23.2524C15.4547 24.3411 14.554 25.2275 13.4444 25.2275H4.67702C3.56739 25.2275 2.66666 24.3411 2.66666 23.2524C2.66666 22.1622 3.56739 21.2773 4.67702 21.2773H13.4444ZM7.25182 4C9.78514 4 11.837 6.01731 11.837 8.50475C11.837 10.9936 9.78514 13.011 7.25182 13.011C4.71998 13.011 2.66666 10.9936 2.66666 8.50475C2.66666 6.01731 4.71998 4 7.25182 4ZM27.3244 6.5311C28.4326 6.5311 29.3333 7.41604 29.3333 8.50475C29.3333 9.59491 28.4326 10.4798 27.3244 10.4798H18.5571C17.4475 10.4798 16.5467 9.59491 16.5467 8.50475C16.5467 7.41604 17.4475 6.5311 18.5571 6.5311H27.3244Z" fill="#334155"/>
</svg>
