<svg width="32" height="32" viewBox="0 0 32 32" fill="none" xmlns="http://www.w3.org/2000/svg">
<path d="M12.1797 27.6976V23.6207C12.1797 22.5799 13.0296 21.7362 14.0779 21.7362H17.9102C18.4136 21.7362 18.8964 21.9348 19.2524 22.2882C19.6084 22.6416 19.8084 23.1209 19.8084 23.6207V27.6976C19.8052 28.1303 19.9761 28.5463 20.2832 28.8534C20.5902 29.1605 21.0081 29.3332 21.4439 29.3332H24.0584C25.2795 29.3363 26.4517 28.857 27.3162 28.0009C28.1808 27.1449 28.6667 25.9825 28.6667 24.7703V13.1556C28.6667 12.1765 28.2294 11.2476 27.4728 10.6194L18.5787 3.56766C17.0316 2.33125 14.8148 2.37117 13.3139 3.66248L4.62269 10.6194C3.83033 11.2291 3.35675 12.1607 3.33334 13.1556V24.7584C3.33334 27.285 5.39652 29.3332 7.94157 29.3332H10.4964C11.4016 29.3332 12.1373 28.6081 12.1439 27.7095L12.1797 27.6976Z" fill="#334155"/>
</svg>
