<svg width="32" height="32" viewBox="0 0 32 32" fill="none" xmlns="http://www.w3.org/2000/svg">
<path d="M15.3236 2.6665C18.6337 2.6665 21.3333 5.31984 21.3333 8.5865V14.9732H13.1938C12.6105 14.9732 12.1492 15.4265 12.1492 15.9998C12.1492 16.5598 12.6105 17.0265 13.1938 17.0265H21.3333V23.3998C21.3333 26.6665 18.6337 29.3332 15.2965 29.3332H8.68991C5.36627 29.3332 2.66666 26.6798 2.66666 23.4132V8.59984C2.66666 5.31984 5.37984 2.6665 8.70348 2.6665H15.3236ZM24.7203 11.4001C25.1203 10.9868 25.7736 10.9868 26.1736 11.3868L30.0669 15.2668C30.2669 15.4668 30.3736 15.7201 30.3736 16.0001C30.3736 16.2668 30.2669 16.5334 30.0669 16.7201L26.1736 20.6001C25.9736 20.8001 25.7069 20.9068 25.4536 20.9068C25.1869 20.9068 24.9203 20.8001 24.7203 20.6001C24.3203 20.2001 24.3203 19.5468 24.7203 19.1468L26.8536 17.0268H21.3336V14.9734H26.8536L24.7203 12.8534C24.3203 12.4534 24.3203 11.8001 24.7203 11.4001Z" fill="white"/>
</svg>
