<svg width="32" height="32" viewBox="0 0 32 32" fill="none" xmlns="http://www.w3.org/2000/svg">
<path fill-rule="evenodd" clip-rule="evenodd" d="M9.5 3C7.77609 3 6.12279 3.68482 4.90381 4.90381C3.68482 6.12279 3 7.77609 3 9.5V22.5C3 24.2239 3.68482 25.8772 4.90381 27.0962C6.12279 28.3152 7.77609 29 9.5 29H22.5C24.2239 29 25.8772 28.3152 27.0962 27.0962C28.3152 25.8772 29 24.2239 29 22.5V9.5C29 7.77609 28.3152 6.12279 27.0962 4.90381C25.8772 3.68482 24.2239 3 22.5 3H9.5ZM20.849 14.2892C20.9658 14.1646 21.0569 14.0182 21.117 13.8583C21.1772 13.6985 21.2054 13.5284 21.1998 13.3577C21.1943 13.187 21.1551 13.0191 21.0847 12.8635C21.0142 12.7079 20.9138 12.5678 20.7892 12.451C20.6646 12.3342 20.5182 12.2431 20.3583 12.183C20.1985 12.1228 20.0284 12.0946 19.8577 12.1002C19.687 12.1057 19.5191 12.1449 19.3635 12.2153C19.2079 12.2858 19.0678 12.3862 18.951 12.5108L14.9431 16.7878L12.9632 15.0289C12.7038 14.8133 12.3707 14.7069 12.0343 14.7323C11.698 14.7576 11.3846 14.9128 11.1605 15.1649C10.9364 15.417 10.8191 15.7464 10.8333 16.0834C10.8475 16.4205 10.9922 16.7388 11.2368 16.9711L14.1618 19.5711C14.4149 19.7959 14.7457 19.9131 15.0839 19.8979C15.4221 19.8826 15.7409 19.7359 15.9727 19.4892L20.849 14.2892Z" fill="#333F49"/>
</svg>
