<svg width="32" height="32" viewBox="0 0 32 32" fill="none" xmlns="http://www.w3.org/2000/svg">
<path d="M22.0649 3.01344C23.935 2.89656 25.7791 3.54588 27.1686 4.81857C28.4413 6.20813 29.0907 8.05222 28.9868 9.93527V22.0647C29.1037 23.9478 28.4413 25.7919 27.1816 27.1814C25.7921 28.4541 23.935 29.1034 22.0649 28.9866H9.93533C8.05226 29.1034 6.20816 28.4541 4.81858 27.1814C3.54589 25.7919 2.89656 23.9478 3.01344 22.0647V9.93527C2.89656 8.05222 3.54589 6.20813 4.81858 4.81857C6.20816 3.54588 8.05226 2.89656 9.93533 3.01344H22.0649ZM21.7272 8.9483C20.9221 8.14313 19.6234 8.14313 18.8182 8.9483L17.9481 9.83138C17.8182 9.96125 17.8182 10.182 17.9481 10.3119C17.9481 10.3119 17.9736 10.3372 18.019 10.3823L18.3384 10.7C18.5232 10.8839 18.7538 11.1134 18.9854 11.3443L19.7707 12.1293C19.9346 12.2939 20.0433 12.4042 20.0519 12.4157C20.1948 12.5715 20.2857 12.7793 20.2857 13.0131C20.2857 13.4806 19.9091 13.8702 19.4286 13.8702C19.2078 13.8702 19 13.7793 18.8572 13.6364L16.6884 11.4807C16.5845 11.3768 16.4027 11.3768 16.2988 11.4807L10.1042 17.6753C9.6756 18.1038 9.42885 18.6752 9.41586 19.2856L9.33794 22.3634C9.33794 22.5322 9.38989 22.6881 9.50677 22.805C9.62365 22.9218 9.77949 22.9868 9.94832 22.9868H13.0002C13.6235 22.9868 14.2209 22.74 14.6755 22.2985L23.4155 13.5326C24.2077 12.7274 24.2077 11.4287 23.4155 10.6365L21.7272 8.9483Z" fill="#333F49"/>
</svg>
