<svg width="19" height="19" viewBox="0 0 19 19" fill="none" xmlns="http://www.w3.org/2000/svg">
<g clip-path="url(#clip0_106_5233)">
<path fill-rule="evenodd" clip-rule="evenodd" d="M10.3392 12.7141C10.1166 12.9364 9.81473 13.0613 9.50004 13.0613C9.18535 13.0613 8.88353 12.9364 8.66088 12.7141L4.18163 8.23639C3.95896 8.01362 3.83391 7.71152 3.83398 7.39655C3.83406 7.08158 3.95925 6.77954 4.18202 6.55687C4.40479 6.33421 4.70689 6.20915 5.02186 6.20923C5.33684 6.2093 5.63888 6.3345 5.86154 6.55727L9.50004 10.1958L13.1385 6.55727C13.3624 6.34085 13.6623 6.22101 13.9737 6.22357C14.285 6.22613 14.5829 6.35087 14.8032 6.57094C15.0235 6.79101 15.1485 7.08879 15.1514 7.40015C15.1542 7.71151 15.0347 8.01153 14.8185 8.2356L10.34 12.7149L10.3392 12.7141Z" fill="#1E293B"/>
</g>
<defs>
<clipPath id="clip0_106_5233">
<rect width="19" height="19" fill="white"/>
</clipPath>
</defs>
</svg>
